<mxfile host="app.diagrams.net" modified="2020-11-08T03:14:22.168Z" agent="5.0 (Macintosh; Intel Mac OS X 10_15_5) AppleWebKit/537.36 (KHTML, like Gecko) Chrome/86.0.4240.183 Safari/537.36" etag="tYYmkbrWbYeQXMokRrC7" version="13.9.2" type="github">
  <diagram id="xYSU5zKOpEXObKujc5n0" name="第 1 页">
    <mxGraphModel dx="1298" dy="777" grid="1" gridSize="10" guides="1" tooltips="1" connect="1" arrows="1" fold="1" page="1" pageScale="1" pageWidth="827" pageHeight="1169" math="0" shadow="0">
      <root>
        <mxCell id="0" />
        <mxCell id="1" parent="0" />
        <mxCell id="zQl8RCaZIkxgo1g_I3Rm-6" value="" style="ellipse;whiteSpace=wrap;html=1;aspect=fixed;" vertex="1" parent="1">
          <mxGeometry x="255" y="289" width="10" height="10" as="geometry" />
        </mxCell>
        <mxCell id="zQl8RCaZIkxgo1g_I3Rm-7" value="" style="ellipse;whiteSpace=wrap;html=1;aspect=fixed;" vertex="1" parent="1">
          <mxGeometry x="285" y="260" width="10" height="10" as="geometry" />
        </mxCell>
        <mxCell id="zQl8RCaZIkxgo1g_I3Rm-2" style="edgeStyle=orthogonalEdgeStyle;rounded=0;orthogonalLoop=1;jettySize=auto;html=1;exitX=0;exitY=0.25;exitDx=0;exitDy=0;exitPerimeter=0;endArrow=none;endFill=0;" edge="1" parent="1" source="zQl8RCaZIkxgo1g_I3Rm-1">
          <mxGeometry relative="1" as="geometry">
            <mxPoint x="200" y="265" as="targetPoint" />
          </mxGeometry>
        </mxCell>
        <mxCell id="zQl8RCaZIkxgo1g_I3Rm-3" style="edgeStyle=orthogonalEdgeStyle;rounded=0;orthogonalLoop=1;jettySize=auto;html=1;exitX=0;exitY=0.75;exitDx=0;exitDy=0;exitPerimeter=0;endArrow=none;endFill=0;" edge="1" parent="1" source="zQl8RCaZIkxgo1g_I3Rm-1">
          <mxGeometry relative="1" as="geometry">
            <mxPoint x="200" y="295" as="targetPoint" />
          </mxGeometry>
        </mxCell>
        <mxCell id="zQl8RCaZIkxgo1g_I3Rm-4" style="edgeStyle=orthogonalEdgeStyle;rounded=0;orthogonalLoop=1;jettySize=auto;html=1;exitX=0;exitY=0.25;exitDx=0;exitDy=0;exitPerimeter=0;endArrow=none;endFill=0;entryX=0;entryY=0.75;entryDx=0;entryDy=0;entryPerimeter=0;" edge="1" parent="1" source="zQl8RCaZIkxgo1g_I3Rm-1" target="zQl8RCaZIkxgo1g_I3Rm-10">
          <mxGeometry relative="1" as="geometry">
            <mxPoint x="290" y="180" as="targetPoint" />
            <Array as="points">
              <mxPoint x="290" y="265" />
              <mxPoint x="290" y="175" />
            </Array>
          </mxGeometry>
        </mxCell>
        <mxCell id="zQl8RCaZIkxgo1g_I3Rm-5" style="edgeStyle=orthogonalEdgeStyle;rounded=0;orthogonalLoop=1;jettySize=auto;html=1;exitX=0;exitY=0.75;exitDx=0;exitDy=0;exitPerimeter=0;endArrow=none;endFill=0;entryX=0;entryY=0.25;entryDx=0;entryDy=0;entryPerimeter=0;" edge="1" parent="1" source="zQl8RCaZIkxgo1g_I3Rm-1" target="zQl8RCaZIkxgo1g_I3Rm-10">
          <mxGeometry relative="1" as="geometry">
            <mxPoint x="260" y="140" as="targetPoint" />
            <Array as="points">
              <mxPoint x="260" y="295" />
              <mxPoint x="260" y="145" />
            </Array>
          </mxGeometry>
        </mxCell>
        <mxCell id="zQl8RCaZIkxgo1g_I3Rm-11" style="edgeStyle=orthogonalEdgeStyle;rounded=0;orthogonalLoop=1;jettySize=auto;html=1;exitX=1;exitY=0.5;exitDx=0;exitDy=0;exitPerimeter=0;endArrow=none;endFill=0;" edge="1" parent="1" source="zQl8RCaZIkxgo1g_I3Rm-1">
          <mxGeometry relative="1" as="geometry">
            <mxPoint x="440" y="280" as="targetPoint" />
          </mxGeometry>
        </mxCell>
        <mxCell id="zQl8RCaZIkxgo1g_I3Rm-1" value="" style="verticalLabelPosition=bottom;shadow=0;dashed=0;align=center;html=1;verticalAlign=top;shape=mxgraph.electrical.logic_gates.logic_gate;operation=or;fillColor=#FFF2CC;" vertex="1" parent="1">
          <mxGeometry x="300" y="250" width="100" height="60" as="geometry" />
        </mxCell>
        <mxCell id="zQl8RCaZIkxgo1g_I3Rm-10" value="" style="verticalLabelPosition=bottom;shadow=0;dashed=0;align=center;html=1;verticalAlign=top;shape=mxgraph.electrical.logic_gates.logic_gate;operation=and;fillColor=#FFF2CC;" vertex="1" parent="1">
          <mxGeometry x="340" y="130" width="100" height="60" as="geometry" />
        </mxCell>
        <mxCell id="zQl8RCaZIkxgo1g_I3Rm-12" value="或门" style="text;html=1;strokeColor=none;fillColor=none;align=center;verticalAlign=middle;whiteSpace=wrap;rounded=0;" vertex="1" parent="1">
          <mxGeometry x="330" y="270" width="40" height="20" as="geometry" />
        </mxCell>
        <mxCell id="zQl8RCaZIkxgo1g_I3Rm-13" value="与门" style="text;html=1;strokeColor=none;fillColor=none;align=center;verticalAlign=middle;whiteSpace=wrap;rounded=0;" vertex="1" parent="1">
          <mxGeometry x="370" y="150" width="40" height="20" as="geometry" />
        </mxCell>
        <mxCell id="zQl8RCaZIkxgo1g_I3Rm-14" value="" style="ellipse;whiteSpace=wrap;html=1;aspect=fixed;" vertex="1" parent="1">
          <mxGeometry x="255" y="519" width="10" height="10" as="geometry" />
        </mxCell>
        <mxCell id="zQl8RCaZIkxgo1g_I3Rm-15" value="" style="ellipse;whiteSpace=wrap;html=1;aspect=fixed;" vertex="1" parent="1">
          <mxGeometry x="285" y="490" width="10" height="10" as="geometry" />
        </mxCell>
        <mxCell id="zQl8RCaZIkxgo1g_I3Rm-16" style="edgeStyle=orthogonalEdgeStyle;rounded=0;orthogonalLoop=1;jettySize=auto;html=1;exitX=0;exitY=0.25;exitDx=0;exitDy=0;exitPerimeter=0;endArrow=none;endFill=0;" edge="1" source="zQl8RCaZIkxgo1g_I3Rm-21" parent="1">
          <mxGeometry relative="1" as="geometry">
            <mxPoint x="200" y="495" as="targetPoint" />
          </mxGeometry>
        </mxCell>
        <mxCell id="zQl8RCaZIkxgo1g_I3Rm-17" style="edgeStyle=orthogonalEdgeStyle;rounded=0;orthogonalLoop=1;jettySize=auto;html=1;exitX=0;exitY=0.75;exitDx=0;exitDy=0;exitPerimeter=0;endArrow=none;endFill=0;" edge="1" source="zQl8RCaZIkxgo1g_I3Rm-21" parent="1">
          <mxGeometry relative="1" as="geometry">
            <mxPoint x="200" y="525" as="targetPoint" />
          </mxGeometry>
        </mxCell>
        <mxCell id="zQl8RCaZIkxgo1g_I3Rm-18" style="edgeStyle=orthogonalEdgeStyle;rounded=0;orthogonalLoop=1;jettySize=auto;html=1;exitX=0;exitY=0.25;exitDx=0;exitDy=0;exitPerimeter=0;endArrow=none;endFill=0;entryX=0;entryY=0.75;entryDx=0;entryDy=0;entryPerimeter=0;" edge="1" source="zQl8RCaZIkxgo1g_I3Rm-21" target="zQl8RCaZIkxgo1g_I3Rm-22" parent="1">
          <mxGeometry relative="1" as="geometry">
            <mxPoint x="290" y="410" as="targetPoint" />
            <Array as="points">
              <mxPoint x="290" y="495" />
              <mxPoint x="290" y="405" />
            </Array>
          </mxGeometry>
        </mxCell>
        <mxCell id="zQl8RCaZIkxgo1g_I3Rm-19" style="edgeStyle=orthogonalEdgeStyle;rounded=0;orthogonalLoop=1;jettySize=auto;html=1;exitX=0;exitY=0.75;exitDx=0;exitDy=0;exitPerimeter=0;endArrow=none;endFill=0;entryX=0;entryY=0.25;entryDx=0;entryDy=0;entryPerimeter=0;" edge="1" source="zQl8RCaZIkxgo1g_I3Rm-21" target="zQl8RCaZIkxgo1g_I3Rm-22" parent="1">
          <mxGeometry relative="1" as="geometry">
            <mxPoint x="260" y="370" as="targetPoint" />
            <Array as="points">
              <mxPoint x="260" y="525" />
              <mxPoint x="260" y="375" />
            </Array>
          </mxGeometry>
        </mxCell>
        <mxCell id="zQl8RCaZIkxgo1g_I3Rm-20" style="edgeStyle=orthogonalEdgeStyle;rounded=0;orthogonalLoop=1;jettySize=auto;html=1;exitX=1;exitY=0.5;exitDx=0;exitDy=0;exitPerimeter=0;endArrow=none;endFill=0;" edge="1" source="zQl8RCaZIkxgo1g_I3Rm-21" parent="1">
          <mxGeometry relative="1" as="geometry">
            <mxPoint x="440" y="510" as="targetPoint" />
          </mxGeometry>
        </mxCell>
        <mxCell id="zQl8RCaZIkxgo1g_I3Rm-21" value="" style="verticalLabelPosition=bottom;shadow=0;dashed=0;align=center;html=1;verticalAlign=top;shape=mxgraph.electrical.logic_gates.logic_gate;operation=or;fillColor=#FFF2CC;" vertex="1" parent="1">
          <mxGeometry x="300" y="480" width="100" height="60" as="geometry" />
        </mxCell>
        <mxCell id="zQl8RCaZIkxgo1g_I3Rm-22" value="" style="verticalLabelPosition=bottom;shadow=0;dashed=0;align=center;html=1;verticalAlign=top;shape=mxgraph.electrical.logic_gates.logic_gate;operation=and;fillColor=#FFF2CC;" vertex="1" parent="1">
          <mxGeometry x="340" y="360" width="100" height="60" as="geometry" />
        </mxCell>
        <mxCell id="zQl8RCaZIkxgo1g_I3Rm-23" value="或门" style="text;html=1;strokeColor=none;fillColor=none;align=center;verticalAlign=middle;whiteSpace=wrap;rounded=0;" vertex="1" parent="1">
          <mxGeometry x="330" y="500" width="40" height="20" as="geometry" />
        </mxCell>
        <mxCell id="zQl8RCaZIkxgo1g_I3Rm-24" value="与门" style="text;html=1;strokeColor=none;fillColor=none;align=center;verticalAlign=middle;whiteSpace=wrap;rounded=0;" vertex="1" parent="1">
          <mxGeometry x="370" y="380" width="40" height="20" as="geometry" />
        </mxCell>
        <mxCell id="zQl8RCaZIkxgo1g_I3Rm-25" value="有两个输出端，但是我们只要一个，而且当都输入1的时候，结果还是1而不是0与预期的不一样，所以还要改进" style="text;html=1;strokeColor=none;fillColor=none;align=center;verticalAlign=middle;whiteSpace=wrap;rounded=0;" vertex="1" parent="1">
          <mxGeometry x="450" y="190" width="160" height="60" as="geometry" />
        </mxCell>
        <mxCell id="zQl8RCaZIkxgo1g_I3Rm-26" value="" style="verticalLabelPosition=bottom;shadow=0;dashed=0;align=center;html=1;verticalAlign=top;shape=mxgraph.electrical.logic_gates.logic_gate;operation=or;fillColor=#FFF2CC;" vertex="1" parent="1">
          <mxGeometry x="490" y="420" width="100" height="60" as="geometry" />
        </mxCell>
        <mxCell id="zQl8RCaZIkxgo1g_I3Rm-27" value="如果我们在这里放一个或门，那么当输入端都是1的时候，前面的或门必然输出1，这时候会导致我们放的这个或门结果一定是1，这是不符合预期的" style="text;html=1;strokeColor=none;fillColor=none;align=center;verticalAlign=middle;whiteSpace=wrap;rounded=0;" vertex="1" parent="1">
          <mxGeometry x="450" y="494" width="180" height="60" as="geometry" />
        </mxCell>
        <mxCell id="zQl8RCaZIkxgo1g_I3Rm-28" value="" style="ellipse;whiteSpace=wrap;html=1;aspect=fixed;" vertex="1" parent="1">
          <mxGeometry x="235" y="759" width="10" height="10" as="geometry" />
        </mxCell>
        <mxCell id="zQl8RCaZIkxgo1g_I3Rm-29" value="" style="ellipse;whiteSpace=wrap;html=1;aspect=fixed;" vertex="1" parent="1">
          <mxGeometry x="265" y="730" width="10" height="10" as="geometry" />
        </mxCell>
        <mxCell id="zQl8RCaZIkxgo1g_I3Rm-30" style="edgeStyle=orthogonalEdgeStyle;rounded=0;orthogonalLoop=1;jettySize=auto;html=1;exitX=0;exitY=0.25;exitDx=0;exitDy=0;exitPerimeter=0;endArrow=none;endFill=0;" edge="1" source="zQl8RCaZIkxgo1g_I3Rm-35" parent="1">
          <mxGeometry relative="1" as="geometry">
            <mxPoint x="180" y="735" as="targetPoint" />
          </mxGeometry>
        </mxCell>
        <mxCell id="zQl8RCaZIkxgo1g_I3Rm-31" style="edgeStyle=orthogonalEdgeStyle;rounded=0;orthogonalLoop=1;jettySize=auto;html=1;exitX=0;exitY=0.75;exitDx=0;exitDy=0;exitPerimeter=0;endArrow=none;endFill=0;" edge="1" source="zQl8RCaZIkxgo1g_I3Rm-35" parent="1">
          <mxGeometry relative="1" as="geometry">
            <mxPoint x="180" y="765" as="targetPoint" />
          </mxGeometry>
        </mxCell>
        <mxCell id="zQl8RCaZIkxgo1g_I3Rm-32" style="edgeStyle=orthogonalEdgeStyle;rounded=0;orthogonalLoop=1;jettySize=auto;html=1;exitX=0;exitY=0.25;exitDx=0;exitDy=0;exitPerimeter=0;endArrow=none;endFill=0;entryX=0;entryY=0.75;entryDx=0;entryDy=0;entryPerimeter=0;" edge="1" source="zQl8RCaZIkxgo1g_I3Rm-35" target="zQl8RCaZIkxgo1g_I3Rm-36" parent="1">
          <mxGeometry relative="1" as="geometry">
            <mxPoint x="270" y="650" as="targetPoint" />
            <Array as="points">
              <mxPoint x="270" y="735" />
              <mxPoint x="270" y="645" />
            </Array>
          </mxGeometry>
        </mxCell>
        <mxCell id="zQl8RCaZIkxgo1g_I3Rm-33" style="edgeStyle=orthogonalEdgeStyle;rounded=0;orthogonalLoop=1;jettySize=auto;html=1;exitX=0;exitY=0.75;exitDx=0;exitDy=0;exitPerimeter=0;endArrow=none;endFill=0;entryX=0;entryY=0.25;entryDx=0;entryDy=0;entryPerimeter=0;" edge="1" source="zQl8RCaZIkxgo1g_I3Rm-35" target="zQl8RCaZIkxgo1g_I3Rm-36" parent="1">
          <mxGeometry relative="1" as="geometry">
            <mxPoint x="240" y="610" as="targetPoint" />
            <Array as="points">
              <mxPoint x="240" y="765" />
              <mxPoint x="240" y="615" />
            </Array>
          </mxGeometry>
        </mxCell>
        <mxCell id="zQl8RCaZIkxgo1g_I3Rm-34" style="edgeStyle=orthogonalEdgeStyle;rounded=0;orthogonalLoop=1;jettySize=auto;html=1;exitX=1;exitY=0.5;exitDx=0;exitDy=0;exitPerimeter=0;endArrow=none;endFill=0;" edge="1" source="zQl8RCaZIkxgo1g_I3Rm-35" parent="1">
          <mxGeometry relative="1" as="geometry">
            <mxPoint x="420" y="750" as="targetPoint" />
          </mxGeometry>
        </mxCell>
        <mxCell id="zQl8RCaZIkxgo1g_I3Rm-35" value="" style="verticalLabelPosition=bottom;shadow=0;dashed=0;align=center;html=1;verticalAlign=top;shape=mxgraph.electrical.logic_gates.logic_gate;operation=or;fillColor=#FFF2CC;" vertex="1" parent="1">
          <mxGeometry x="280" y="720" width="100" height="60" as="geometry" />
        </mxCell>
        <mxCell id="zQl8RCaZIkxgo1g_I3Rm-36" value="" style="verticalLabelPosition=bottom;shadow=0;dashed=0;align=center;html=1;verticalAlign=top;shape=mxgraph.electrical.logic_gates.logic_gate;operation=and;fillColor=#FFF2CC;" vertex="1" parent="1">
          <mxGeometry x="320" y="600" width="100" height="60" as="geometry" />
        </mxCell>
        <mxCell id="zQl8RCaZIkxgo1g_I3Rm-37" value="或门" style="text;html=1;strokeColor=none;fillColor=none;align=center;verticalAlign=middle;whiteSpace=wrap;rounded=0;" vertex="1" parent="1">
          <mxGeometry x="310" y="740" width="40" height="20" as="geometry" />
        </mxCell>
        <mxCell id="zQl8RCaZIkxgo1g_I3Rm-38" value="与门" style="text;html=1;strokeColor=none;fillColor=none;align=center;verticalAlign=middle;whiteSpace=wrap;rounded=0;" vertex="1" parent="1">
          <mxGeometry x="350" y="620" width="40" height="20" as="geometry" />
        </mxCell>
        <mxCell id="zQl8RCaZIkxgo1g_I3Rm-41" value="" style="verticalLabelPosition=bottom;shadow=0;dashed=0;align=center;html=1;verticalAlign=top;shape=mxgraph.electrical.logic_gates.logic_gate;operation=and;fillColor=#FFF2CC;" vertex="1" parent="1">
          <mxGeometry x="490" y="640" width="100" height="60" as="geometry" />
        </mxCell>
        <mxCell id="zQl8RCaZIkxgo1g_I3Rm-42" value="如果我们在这里放一个与门，那么当输入端都是1的时候，虽然前面的或门必然输出1，但是与门的条件是两端都输入1才为1，所以我们可以控制另一段使其为0这样结果就会是0了" style="text;html=1;strokeColor=none;fillColor=none;align=center;verticalAlign=middle;whiteSpace=wrap;rounded=0;" vertex="1" parent="1">
          <mxGeometry x="450" y="720" width="180" height="60" as="geometry" />
        </mxCell>
        <mxCell id="zQl8RCaZIkxgo1g_I3Rm-43" value="" style="ellipse;whiteSpace=wrap;html=1;aspect=fixed;" vertex="1" parent="1">
          <mxGeometry x="220" y="989" width="10" height="10" as="geometry" />
        </mxCell>
        <mxCell id="zQl8RCaZIkxgo1g_I3Rm-44" value="" style="ellipse;whiteSpace=wrap;html=1;aspect=fixed;" vertex="1" parent="1">
          <mxGeometry x="250" y="960" width="10" height="10" as="geometry" />
        </mxCell>
        <mxCell id="zQl8RCaZIkxgo1g_I3Rm-45" style="edgeStyle=orthogonalEdgeStyle;rounded=0;orthogonalLoop=1;jettySize=auto;html=1;exitX=0;exitY=0.25;exitDx=0;exitDy=0;exitPerimeter=0;endArrow=none;endFill=0;" edge="1" source="zQl8RCaZIkxgo1g_I3Rm-50" parent="1">
          <mxGeometry relative="1" as="geometry">
            <mxPoint x="165" y="965" as="targetPoint" />
          </mxGeometry>
        </mxCell>
        <mxCell id="zQl8RCaZIkxgo1g_I3Rm-46" style="edgeStyle=orthogonalEdgeStyle;rounded=0;orthogonalLoop=1;jettySize=auto;html=1;exitX=0;exitY=0.75;exitDx=0;exitDy=0;exitPerimeter=0;endArrow=none;endFill=0;" edge="1" source="zQl8RCaZIkxgo1g_I3Rm-50" parent="1">
          <mxGeometry relative="1" as="geometry">
            <mxPoint x="165" y="995" as="targetPoint" />
          </mxGeometry>
        </mxCell>
        <mxCell id="zQl8RCaZIkxgo1g_I3Rm-47" style="edgeStyle=orthogonalEdgeStyle;rounded=0;orthogonalLoop=1;jettySize=auto;html=1;exitX=0;exitY=0.25;exitDx=0;exitDy=0;exitPerimeter=0;endArrow=none;endFill=0;entryX=0;entryY=0.75;entryDx=0;entryDy=0;entryPerimeter=0;" edge="1" source="zQl8RCaZIkxgo1g_I3Rm-50" target="zQl8RCaZIkxgo1g_I3Rm-51" parent="1">
          <mxGeometry relative="1" as="geometry">
            <mxPoint x="255" y="880" as="targetPoint" />
            <Array as="points">
              <mxPoint x="255" y="965" />
              <mxPoint x="255" y="875" />
            </Array>
          </mxGeometry>
        </mxCell>
        <mxCell id="zQl8RCaZIkxgo1g_I3Rm-48" style="edgeStyle=orthogonalEdgeStyle;rounded=0;orthogonalLoop=1;jettySize=auto;html=1;exitX=0;exitY=0.75;exitDx=0;exitDy=0;exitPerimeter=0;endArrow=none;endFill=0;entryX=0;entryY=0.25;entryDx=0;entryDy=0;entryPerimeter=0;" edge="1" source="zQl8RCaZIkxgo1g_I3Rm-50" target="zQl8RCaZIkxgo1g_I3Rm-51" parent="1">
          <mxGeometry relative="1" as="geometry">
            <mxPoint x="225" y="840" as="targetPoint" />
            <Array as="points">
              <mxPoint x="225" y="995" />
              <mxPoint x="225" y="845" />
            </Array>
          </mxGeometry>
        </mxCell>
        <mxCell id="zQl8RCaZIkxgo1g_I3Rm-59" style="edgeStyle=orthogonalEdgeStyle;rounded=0;orthogonalLoop=1;jettySize=auto;html=1;exitX=1;exitY=0.5;exitDx=0;exitDy=0;exitPerimeter=0;entryX=0;entryY=0.75;entryDx=0;entryDy=0;entryPerimeter=0;endArrow=none;endFill=0;" edge="1" parent="1" source="zQl8RCaZIkxgo1g_I3Rm-50" target="zQl8RCaZIkxgo1g_I3Rm-54">
          <mxGeometry relative="1" as="geometry">
            <Array as="points">
              <mxPoint x="490" y="980" />
            </Array>
          </mxGeometry>
        </mxCell>
        <mxCell id="zQl8RCaZIkxgo1g_I3Rm-50" value="" style="verticalLabelPosition=bottom;shadow=0;dashed=0;align=center;html=1;verticalAlign=top;shape=mxgraph.electrical.logic_gates.logic_gate;operation=or;fillColor=#FFF2CC;" vertex="1" parent="1">
          <mxGeometry x="265" y="950" width="100" height="60" as="geometry" />
        </mxCell>
        <mxCell id="zQl8RCaZIkxgo1g_I3Rm-57" style="edgeStyle=orthogonalEdgeStyle;rounded=0;orthogonalLoop=1;jettySize=auto;html=1;exitX=1;exitY=0.5;exitDx=0;exitDy=0;exitPerimeter=0;entryX=0;entryY=0.5;entryDx=0;entryDy=0;endArrow=none;endFill=0;" edge="1" parent="1" source="zQl8RCaZIkxgo1g_I3Rm-51" target="zQl8RCaZIkxgo1g_I3Rm-56">
          <mxGeometry relative="1" as="geometry" />
        </mxCell>
        <mxCell id="zQl8RCaZIkxgo1g_I3Rm-51" value="" style="verticalLabelPosition=bottom;shadow=0;dashed=0;align=center;html=1;verticalAlign=top;shape=mxgraph.electrical.logic_gates.logic_gate;operation=and;fillColor=#FFF2CC;" vertex="1" parent="1">
          <mxGeometry x="305" y="830" width="100" height="60" as="geometry" />
        </mxCell>
        <mxCell id="zQl8RCaZIkxgo1g_I3Rm-52" value="或门" style="text;html=1;strokeColor=none;fillColor=none;align=center;verticalAlign=middle;whiteSpace=wrap;rounded=0;" vertex="1" parent="1">
          <mxGeometry x="295" y="970" width="40" height="20" as="geometry" />
        </mxCell>
        <mxCell id="zQl8RCaZIkxgo1g_I3Rm-53" value="与门" style="text;html=1;strokeColor=none;fillColor=none;align=center;verticalAlign=middle;whiteSpace=wrap;rounded=0;" vertex="1" parent="1">
          <mxGeometry x="335" y="850" width="40" height="20" as="geometry" />
        </mxCell>
        <mxCell id="zQl8RCaZIkxgo1g_I3Rm-54" value="" style="verticalLabelPosition=bottom;shadow=0;dashed=0;align=center;html=1;verticalAlign=top;shape=mxgraph.electrical.logic_gates.logic_gate;operation=and;fillColor=#FFF2CC;" vertex="1" parent="1">
          <mxGeometry x="490" y="900" width="100" height="60" as="geometry" />
        </mxCell>
        <mxCell id="zQl8RCaZIkxgo1g_I3Rm-58" style="edgeStyle=orthogonalEdgeStyle;rounded=0;orthogonalLoop=1;jettySize=auto;html=1;exitX=1;exitY=0.5;exitDx=0;exitDy=0;entryX=0;entryY=0.25;entryDx=0;entryDy=0;entryPerimeter=0;endArrow=none;endFill=0;" edge="1" parent="1" source="zQl8RCaZIkxgo1g_I3Rm-56" target="zQl8RCaZIkxgo1g_I3Rm-54">
          <mxGeometry relative="1" as="geometry">
            <Array as="points">
              <mxPoint x="490" y="910" />
              <mxPoint x="490" y="910" />
            </Array>
          </mxGeometry>
        </mxCell>
        <mxCell id="zQl8RCaZIkxgo1g_I3Rm-56" value="" style="verticalLabelPosition=bottom;shadow=0;dashed=0;align=center;html=1;verticalAlign=top;shape=mxgraph.electrical.logic_gates.buffer2;negating=1;fillColor=#FFF2CC;" vertex="1" parent="1">
          <mxGeometry x="390" y="830" width="100" height="60" as="geometry" />
        </mxCell>
        <mxCell id="zQl8RCaZIkxgo1g_I3Rm-60" value="或门" style="text;html=1;strokeColor=none;fillColor=none;align=center;verticalAlign=middle;whiteSpace=wrap;rounded=0;" vertex="1" parent="1">
          <mxGeometry x="520" y="440" width="40" height="20" as="geometry" />
        </mxCell>
        <mxCell id="zQl8RCaZIkxgo1g_I3Rm-61" value="与门" style="text;html=1;strokeColor=none;fillColor=none;align=center;verticalAlign=middle;whiteSpace=wrap;rounded=0;" vertex="1" parent="1">
          <mxGeometry x="520" y="660" width="40" height="20" as="geometry" />
        </mxCell>
        <mxCell id="zQl8RCaZIkxgo1g_I3Rm-62" value="与门" style="text;html=1;strokeColor=none;fillColor=none;align=center;verticalAlign=middle;whiteSpace=wrap;rounded=0;" vertex="1" parent="1">
          <mxGeometry x="520" y="920" width="40" height="20" as="geometry" />
        </mxCell>
        <mxCell id="zQl8RCaZIkxgo1g_I3Rm-63" value="非门" style="text;html=1;strokeColor=none;fillColor=none;align=center;verticalAlign=middle;whiteSpace=wrap;rounded=0;" vertex="1" parent="1">
          <mxGeometry x="414" y="850" width="40" height="20" as="geometry" />
        </mxCell>
        <mxCell id="zQl8RCaZIkxgo1g_I3Rm-64" value="通过添加一个非门，可以让另一端输入是0，使经过与门后得到的结果是0，达到预期" style="text;html=1;strokeColor=none;fillColor=none;align=center;verticalAlign=middle;whiteSpace=wrap;rounded=0;" vertex="1" parent="1">
          <mxGeometry x="500" y="850" width="120" height="40" as="geometry" />
        </mxCell>
      </root>
    </mxGraphModel>
  </diagram>
</mxfile>
